<?xml version='1.0' encoding='utf-8'?>
<svg xmlns="http://www.w3.org/2000/svg" width="178mm" height="86.03333mm" viewBox="0 0 1200 580" version="1.1"><title>Primary-derived routing for selective SSD access</title><desc>Editable vector export rendered directly from native draw.io shapes. No raster images.</desc><g id="0" /><g id="1" /><g id="a" /><g id="b" /><g id="c" /><g id="n1"><rect x="0.0" y="0.0" width="1200.0" height="580.0" rx="0" fill="#FFFFFF" stroke="none" stroke-width="1.25" /></g><g id="e2"><polyline points="329.0,24.0 329.0,554.0" fill="none" stroke="#B4C8D8" stroke-width="1.0" stroke-linejoin="round" stroke-linecap="round" /></g><g id="e3"><polyline points="870.0,24.0 870.0,554.0" fill="none" stroke="#B4C8D8" stroke-width="1.0" stroke-linejoin="round" stroke-linecap="round" /></g><g id="n4"><rect x="20.0" y="20.0" width="26.0" height="30.0" rx="0" fill="none" stroke="none" stroke-width="1.25" /><text x="33.0" y="43.05" font-family="Arial, Liberation Sans, sans-serif" font-size="23.0" font-weight="bold" fill="#216494" text-anchor="middle">A</text></g><g id="n5"><rect x="54.0" y="20.0" width="246.0" height="30.0" rx="0" fill="none" stroke="none" stroke-width="1.25" /><text x="54.0" y="42.35" font-family="Arial, Liberation Sans, sans-serif" font-size="21.0" font-weight="bold" fill="#182D40" text-anchor="start">One code, two views</text></g><g id="n6"><rect x="350.0" y="20.0" width="26.0" height="30.0" rx="0" fill="none" stroke="none" stroke-width="1.25" /><text x="363.0" y="43.05" font-family="Arial, Liberation Sans, sans-serif" font-size="23.0" font-weight="bold" fill="#216494" text-anchor="middle">B</text></g><g id="n7"><rect x="384.0" y="20.0" width="456.0" height="30.0" rx="0" fill="none" stroke="none" stroke-width="1.25" /><text x="384.0" y="42.35" font-family="Arial, Liberation Sans, sans-serif" font-size="21.0" font-weight="bold" fill="#182D40" text-anchor="start">Selective SSD access</text></g><g id="n8"><rect x="891.0" y="20.0" width="26.0" height="30.0" rx="0" fill="none" stroke="none" stroke-width="1.25" /><text x="904.0" y="43.05" font-family="Arial, Liberation Sans, sans-serif" font-size="23.0" font-weight="bold" fill="#216494" text-anchor="middle">C</text></g><g id="n9"><rect x="925.0" y="20.0" width="255.0" height="30.0" rx="0" fill="none" stroke="none" stroke-width="1.25" /><text x="925.0" y="42.35" font-family="Arial, Liberation Sans, sans-serif" font-size="21.0" font-weight="bold" fill="#182D40" text-anchor="start">Precision by role</text></g><g id="n10"><rect x="27.0" y="83.0" width="279.0" height="27.0" rx="0" fill="none" stroke="none" stroke-width="1.25" /><text x="166.5" y="103.5" font-family="Arial, Liberation Sans, sans-serif" font-size="20.0" font-weight="bold" fill="#182D40" text-anchor="middle">Primary 4-bit</text></g><g id="n11"><rect x="29.0" y="125.0" width="15.0" height="30.0" rx="0" fill="#216494" stroke="#216494" stroke-width="1.25" /><text x="36.5" y="145.95" font-family="Arial, Liberation Sans, sans-serif" font-size="17.0" font-weight="normal" fill="#FFFFFF" text-anchor="middle">1</text></g><g id="n12"><rect x="44.0" y="125.0" width="15.0" height="30.0" rx="0" fill="#E7F1F8" stroke="#216494" stroke-width="1.25" /><text x="51.5" y="145.95" font-family="Arial, Liberation Sans, sans-serif" font-size="17.0" font-weight="normal" fill="#216494" text-anchor="middle">0</text></g><g id="n13"><rect x="59.0" y="125.0" width="15.0" height="30.0" rx="0" fill="#E7F1F8" stroke="#216494" stroke-width="1.25" /><text x="66.5" y="145.95" font-family="Arial, Liberation Sans, sans-serif" font-size="17.0" font-weight="normal" fill="#216494" text-anchor="middle">1</text></g><g id="n14"><rect x="74.0" y="125.0" width="15.0" height="30.0" rx="0" fill="#E7F1F8" stroke="#216494" stroke-width="1.25" /><text x="81.5" y="145.95" font-family="Arial, Liberation Sans, sans-serif" font-size="17.0" font-weight="normal" fill="#216494" text-anchor="middle">0</text></g><g id="n15"><rect x="96.0" y="125.0" width="15.0" height="30.0" rx="0" fill="#216494" stroke="#216494" stroke-width="1.25" /><text x="103.5" y="145.95" font-family="Arial, Liberation Sans, sans-serif" font-size="17.0" font-weight="normal" fill="#FFFFFF" text-anchor="middle">0</text></g><g id="n16"><rect x="111.0" y="125.0" width="15.0" height="30.0" rx="0" fill="#E7F1F8" stroke="#216494" stroke-width="1.25" /><text x="118.5" y="145.95" font-family="Arial, Liberation Sans, sans-serif" font-size="17.0" font-weight="normal" fill="#216494" text-anchor="middle">0</text></g><g id="n17"><rect x="126.0" y="125.0" width="15.0" height="30.0" rx="0" fill="#E7F1F8" stroke="#216494" stroke-width="1.25" /><text x="133.5" y="145.95" font-family="Arial, Liberation Sans, sans-serif" font-size="17.0" font-weight="normal" fill="#216494" text-anchor="middle">1</text></g><g id="n18"><rect x="141.0" y="125.0" width="15.0" height="30.0" rx="0" fill="#E7F1F8" stroke="#216494" stroke-width="1.25" /><text x="148.5" y="145.95" font-family="Arial, Liberation Sans, sans-serif" font-size="17.0" font-weight="normal" fill="#216494" text-anchor="middle">1</text></g><g id="n19"><rect x="163.0" y="125.0" width="15.0" height="30.0" rx="0" fill="#216494" stroke="#216494" stroke-width="1.25" /><text x="170.5" y="145.95" font-family="Arial, Liberation Sans, sans-serif" font-size="17.0" font-weight="normal" fill="#FFFFFF" text-anchor="middle">1</text></g><g id="n20"><rect x="178.0" y="125.0" width="15.0" height="30.0" rx="0" fill="#E7F1F8" stroke="#216494" stroke-width="1.25" /><text x="185.5" y="145.95" font-family="Arial, Liberation Sans, sans-serif" font-size="17.0" font-weight="normal" fill="#216494" text-anchor="middle">1</text></g><g id="n21"><rect x="193.0" y="125.0" width="15.0" height="30.0" rx="0" fill="#E7F1F8" stroke="#216494" stroke-width="1.25" /><text x="200.5" y="145.95" font-family="Arial, Liberation Sans, sans-serif" font-size="17.0" font-weight="normal" fill="#216494" text-anchor="middle">1</text></g><g id="n22"><rect x="208.0" y="125.0" width="15.0" height="30.0" rx="0" fill="#E7F1F8" stroke="#216494" stroke-width="1.25" /><text x="215.5" y="145.95" font-family="Arial, Liberation Sans, sans-serif" font-size="17.0" font-weight="normal" fill="#216494" text-anchor="middle">0</text></g><g id="n23"><rect x="230.0" y="125.0" width="15.0" height="30.0" rx="0" fill="#216494" stroke="#216494" stroke-width="1.25" /><text x="237.5" y="145.95" font-family="Arial, Liberation Sans, sans-serif" font-size="17.0" font-weight="normal" fill="#FFFFFF" text-anchor="middle">0</text></g><g id="n24"><rect x="245.0" y="125.0" width="15.0" height="30.0" rx="0" fill="#E7F1F8" stroke="#216494" stroke-width="1.25" /><text x="252.5" y="145.95" font-family="Arial, Liberation Sans, sans-serif" font-size="17.0" font-weight="normal" fill="#216494" text-anchor="middle">1</text></g><g id="n25"><rect x="260.0" y="125.0" width="15.0" height="30.0" rx="0" fill="#E7F1F8" stroke="#216494" stroke-width="1.25" /><text x="267.5" y="145.95" font-family="Arial, Liberation Sans, sans-serif" font-size="17.0" font-weight="normal" fill="#216494" text-anchor="middle">0</text></g><g id="n26"><rect x="275.0" y="125.0" width="15.0" height="30.0" rx="0" fill="#E7F1F8" stroke="#216494" stroke-width="1.25" /><text x="282.5" y="145.95" font-family="Arial, Liberation Sans, sans-serif" font-size="17.0" font-weight="normal" fill="#216494" text-anchor="middle">1</text></g><g id="n27"><rect x="26.0" y="234.0" width="280.0" height="113.0" rx="9.04" fill="#E7F1F8" stroke="#B4C8D8" stroke-width="1.25" /></g><g id="n28"><rect x="42.0" y="309.0" width="248.0" height="25.0" rx="0" fill="none" stroke="none" stroke-width="1.25" /><text x="166.0" y="327.8" font-family="Arial, Liberation Sans, sans-serif" font-size="18.0" font-weight="bold" fill="#216494" text-anchor="middle">DRAM routing + factors</text></g><g id="e29"><polyline points="36.5,155.0 36.5,173.0" fill="none" stroke="#216494" stroke-width="1.3" stroke-linejoin="round" stroke-linecap="round" /></g><g id="e30"><polyline points="103.5,155.0 103.5,173.0" fill="none" stroke="#216494" stroke-width="1.3" stroke-linejoin="round" stroke-linecap="round" /></g><g id="e31"><polyline points="170.5,155.0 170.5,173.0" fill="none" stroke="#216494" stroke-width="1.3" stroke-linejoin="round" stroke-linecap="round" /></g><g id="e32"><polyline points="237.5,155.0 237.5,173.0" fill="none" stroke="#216494" stroke-width="1.3" stroke-linejoin="round" stroke-linecap="round" /></g><g id="e33"><polyline points="36.5,173.0 237.5,173.0" fill="none" stroke="#216494" stroke-width="1.3" stroke-linejoin="round" stroke-linecap="round" /></g><g id="e34"><polygon points="166.0,249.0 162.514,240.7 169.486,240.7" fill="#216494" /><polyline points="166.0,173.0 166.0,241.7" fill="none" stroke="#216494" stroke-width="2.3" stroke-linejoin="round" stroke-linecap="round" /></g><g id="n35"><rect x="183.0" y="181.0" width="121.0" height="43.0" rx="0" fill="none" stroke="none" stroke-width="1.25" /><text x="183.0" y="198.505" font-family="Arial, Liberation Sans, sans-serif" font-size="17.0" font-weight="normal" fill="#216494" text-anchor="start">Extract MSB</text><text x="183.0" y="218.39499999999998" font-family="Arial, Liberation Sans, sans-serif" font-size="17.0" font-weight="normal" fill="#216494" text-anchor="start">1 bit / dim</text></g><g id="n36"><rect x="54.0" y="259.0" width="38.0" height="32.0" rx="0" fill="#216494" stroke="#216494" stroke-width="1.25" /><text x="73.0" y="282.0" font-family="Arial, Liberation Sans, sans-serif" font-size="20.0" font-weight="normal" fill="#FFFFFF" text-anchor="middle">1</text></g><g id="n37"><rect x="110.0" y="259.0" width="38.0" height="32.0" rx="0" fill="#216494" stroke="#216494" stroke-width="1.25" /><text x="129.0" y="282.0" font-family="Arial, Liberation Sans, sans-serif" font-size="20.0" font-weight="normal" fill="#FFFFFF" text-anchor="middle">0</text></g><g id="n38"><rect x="166.0" y="259.0" width="38.0" height="32.0" rx="0" fill="#216494" stroke="#216494" stroke-width="1.25" /><text x="185.0" y="282.0" font-family="Arial, Liberation Sans, sans-serif" font-size="20.0" font-weight="normal" fill="#FFFFFF" text-anchor="middle">1</text></g><g id="n39"><rect x="222.0" y="259.0" width="38.0" height="32.0" rx="0" fill="#216494" stroke="#216494" stroke-width="1.25" /><text x="241.0" y="282.0" font-family="Arial, Liberation Sans, sans-serif" font-size="20.0" font-weight="normal" fill="#FFFFFF" text-anchor="middle">0</text></g><g id="n40"><rect x="33.0" y="361.0" width="265.0" height="30.0" rx="0" fill="none" stroke="none" stroke-width="1.25" /><text x="165.5" y="382.3" font-family="Arial, Liberation Sans, sans-serif" font-size="18.0" font-weight="bold" fill="#182D40" text-anchor="middle">Full primary stays on SSD</text></g><g id="n41"><rect x="26.0" y="402.0" width="280.0" height="101.0" rx="8.08" fill="#F6F8FA" stroke="#B4C8D8" stroke-width="1.25" /></g><g id="n42"><rect x="33.0" y="430.0" width="14.0" height="30.0" rx="0" fill="#216494" stroke="#216494" stroke-width="1.25" /><text x="40.0" y="450.95" font-family="Arial, Liberation Sans, sans-serif" font-size="17.0" font-weight="normal" fill="#FFFFFF" text-anchor="middle">1</text></g><g id="n43"><rect x="47.0" y="430.0" width="14.0" height="30.0" rx="0" fill="#E7F1F8" stroke="#216494" stroke-width="1.25" /><text x="54.0" y="450.95" font-family="Arial, Liberation Sans, sans-serif" font-size="17.0" font-weight="normal" fill="#216494" text-anchor="middle">0</text></g><g id="n44"><rect x="61.0" y="430.0" width="14.0" height="30.0" rx="0" fill="#E7F1F8" stroke="#216494" stroke-width="1.25" /><text x="68.0" y="450.95" font-family="Arial, Liberation Sans, sans-serif" font-size="17.0" font-weight="normal" fill="#216494" text-anchor="middle">1</text></g><g id="n45"><rect x="75.0" y="430.0" width="14.0" height="30.0" rx="0" fill="#E7F1F8" stroke="#216494" stroke-width="1.25" /><text x="82.0" y="450.95" font-family="Arial, Liberation Sans, sans-serif" font-size="17.0" font-weight="normal" fill="#216494" text-anchor="middle">0</text></g><g id="n46"><rect x="97.0" y="430.0" width="14.0" height="30.0" rx="0" fill="#216494" stroke="#216494" stroke-width="1.25" /><text x="104.0" y="450.95" font-family="Arial, Liberation Sans, sans-serif" font-size="17.0" font-weight="normal" fill="#FFFFFF" text-anchor="middle">0</text></g><g id="n47"><rect x="111.0" y="430.0" width="14.0" height="30.0" rx="0" fill="#E7F1F8" stroke="#216494" stroke-width="1.25" /><text x="118.0" y="450.95" font-family="Arial, Liberation Sans, sans-serif" font-size="17.0" font-weight="normal" fill="#216494" text-anchor="middle">0</text></g><g id="n48"><rect x="125.0" y="430.0" width="14.0" height="30.0" rx="0" fill="#E7F1F8" stroke="#216494" stroke-width="1.25" /><text x="132.0" y="450.95" font-family="Arial, Liberation Sans, sans-serif" font-size="17.0" font-weight="normal" fill="#216494" text-anchor="middle">1</text></g><g id="n49"><rect x="139.0" y="430.0" width="14.0" height="30.0" rx="0" fill="#E7F1F8" stroke="#216494" stroke-width="1.25" /><text x="146.0" y="450.95" font-family="Arial, Liberation Sans, sans-serif" font-size="17.0" font-weight="normal" fill="#216494" text-anchor="middle">1</text></g><g id="n50"><rect x="161.0" y="430.0" width="14.0" height="30.0" rx="0" fill="#216494" stroke="#216494" stroke-width="1.25" /><text x="168.0" y="450.95" font-family="Arial, Liberation Sans, sans-serif" font-size="17.0" font-weight="normal" fill="#FFFFFF" text-anchor="middle">1</text></g><g id="n51"><rect x="175.0" y="430.0" width="14.0" height="30.0" rx="0" fill="#E7F1F8" stroke="#216494" stroke-width="1.25" /><text x="182.0" y="450.95" font-family="Arial, Liberation Sans, sans-serif" font-size="17.0" font-weight="normal" fill="#216494" text-anchor="middle">1</text></g><g id="n52"><rect x="189.0" y="430.0" width="14.0" height="30.0" rx="0" fill="#E7F1F8" stroke="#216494" stroke-width="1.25" /><text x="196.0" y="450.95" font-family="Arial, Liberation Sans, sans-serif" font-size="17.0" font-weight="normal" fill="#216494" text-anchor="middle">1</text></g><g id="n53"><rect x="203.0" y="430.0" width="14.0" height="30.0" rx="0" fill="#E7F1F8" stroke="#216494" stroke-width="1.25" /><text x="210.0" y="450.95" font-family="Arial, Liberation Sans, sans-serif" font-size="17.0" font-weight="normal" fill="#216494" text-anchor="middle">0</text></g><g id="n54"><rect x="225.0" y="430.0" width="14.0" height="30.0" rx="0" fill="#216494" stroke="#216494" stroke-width="1.25" /><text x="232.0" y="450.95" font-family="Arial, Liberation Sans, sans-serif" font-size="17.0" font-weight="normal" fill="#FFFFFF" text-anchor="middle">0</text></g><g id="n55"><rect x="239.0" y="430.0" width="14.0" height="30.0" rx="0" fill="#E7F1F8" stroke="#216494" stroke-width="1.25" /><text x="246.0" y="450.95" font-family="Arial, Liberation Sans, sans-serif" font-size="17.0" font-weight="normal" fill="#216494" text-anchor="middle">1</text></g><g id="n56"><rect x="253.0" y="430.0" width="14.0" height="30.0" rx="0" fill="#E7F1F8" stroke="#216494" stroke-width="1.25" /><text x="260.0" y="450.95" font-family="Arial, Liberation Sans, sans-serif" font-size="17.0" font-weight="normal" fill="#216494" text-anchor="middle">0</text></g><g id="n57"><rect x="267.0" y="430.0" width="14.0" height="30.0" rx="0" fill="#E7F1F8" stroke="#216494" stroke-width="1.25" /><text x="274.0" y="450.95" font-family="Arial, Liberation Sans, sans-serif" font-size="17.0" font-weight="normal" fill="#216494" text-anchor="middle">1</text></g><g id="n58"><rect x="40.0" y="471.0" width="251.0" height="23.0" rx="0" fill="none" stroke="none" stroke-width="1.25" /><text x="165.5" y="488.1" font-family="Arial, Liberation Sans, sans-serif" font-size="16.0" font-weight="normal" fill="#526577" text-anchor="middle">Complete 4-bit representation</text></g><g id="e59"><polygon points="306.0,451.0 313.4,447.892 313.4,454.108" fill="#526577" /><polyline points="297.0,141.0 316.0,141.0 316.0,451.0 312.4,451.0" fill="none" stroke="#526577" stroke-width="1.4" stroke-linejoin="round" stroke-linecap="round" stroke-dasharray="5 4" /></g><g id="n60"><rect x="27.0" y="524.0" width="280.0" height="27.0" rx="0" fill="none" stroke="none" stroke-width="1.25" /><text x="167.0" y="543.45" font-family="Arial, Liberation Sans, sans-serif" font-size="17.0" font-weight="normal" fill="#526577" text-anchor="middle">Shared representation, two views</text></g><g id="n61"><rect x="344.0" y="77.0" width="515.0" height="299.0" rx="23.92" fill="#F3F8FC" stroke="none" stroke-width="1.25" /></g><g id="n62"><rect x="344.0" y="408.0" width="515.0" height="137.0" rx="10.96" fill="#F3F5F7" stroke="none" stroke-width="1.25" /></g><g id="n63"><rect x="356.0" y="80.0" width="125.0" height="21.0" rx="0" fill="none" stroke="none" stroke-width="1.25" /><text x="356.0" y="96.1" font-family="Arial, Liberation Sans, sans-serif" font-size="16.0" font-weight="bold" fill="#216494" text-anchor="start">DRAM / CPU</text></g><g id="n64"><rect x="356.0" y="413.0" width="61.0" height="25.0" rx="0" fill="none" stroke="none" stroke-width="1.25" /><text x="356.0" y="431.8" font-family="Arial, Liberation Sans, sans-serif" font-size="18.0" font-weight="bold" fill="#526577" text-anchor="start">SSD</text></g><g id="e65"><polyline points="344.0,390.0 859.0,390.0" fill="none" stroke="#B4C8D8" stroke-width="1.2" stroke-linejoin="round" stroke-linecap="round" stroke-dasharray="5 4" /></g><g id="real-query"><rect x="361.0" y="114.0" width="145.0" height="47.0" rx="3.76" fill="#FFFFFF" stroke="#216494" stroke-width="1.25" /><text x="433.5" y="133.27" font-family="Arial, Liberation Sans, sans-serif" font-size="18.0" font-weight="bold" fill="#216494" text-anchor="middle">Real-valued</text><text x="433.5" y="154.33" font-family="Arial, Liberation Sans, sans-serif" font-size="18.0" font-weight="bold" fill="#216494" text-anchor="middle">query q</text></g><g id="routing-sidecar"><rect x="361.0" y="210.0" width="151.0" height="53.0" rx="4.24" fill="#E7F1F8" stroke="#216494" stroke-width="1.25" /><text x="436.5" y="232.27" font-family="Arial, Liberation Sans, sans-serif" font-size="18.0" font-weight="bold" fill="#216494" text-anchor="middle">Derived 1-bit</text><text x="436.5" y="253.33" font-family="Arial, Liberation Sans, sans-serif" font-size="18.0" font-weight="bold" fill="#216494" text-anchor="middle">codes + factors</text></g><g id="n68"><rect x="529.0" y="85.0" width="190.0" height="25.0" rx="0" fill="none" stroke="none" stroke-width="1.25" /><text x="624.0" y="103.45" font-family="Arial, Liberation Sans, sans-serif" font-size="17.0" font-weight="bold" fill="#182D40" text-anchor="middle">New graph neighbors</text></g><g id="n69"><ellipse cx="554.0" cy="141.0" rx="15.0" ry="15.0" fill="#FFFFFF" stroke="#B4C8D8" stroke-width="1.25" /><text x="554.0" y="146.6" font-family="Arial, Liberation Sans, sans-serif" font-size="16.0" font-weight="normal" fill="#182D40" text-anchor="middle">v1</text></g><g id="n70"><ellipse cx="596.0" cy="141.0" rx="15.0" ry="15.0" fill="#FFFFFF" stroke="#B4C8D8" stroke-width="1.25" /><text x="596.0" y="146.6" font-family="Arial, Liberation Sans, sans-serif" font-size="16.0" font-weight="normal" fill="#182D40" text-anchor="middle">v2</text></g><g id="n71"><ellipse cx="638.0" cy="141.0" rx="15.0" ry="15.0" fill="#FFFFFF" stroke="#B4C8D8" stroke-width="1.25" /><text x="638.0" y="146.6" font-family="Arial, Liberation Sans, sans-serif" font-size="16.0" font-weight="normal" fill="#182D40" text-anchor="middle">v3</text></g><g id="n72"><ellipse cx="680.0" cy="141.0" rx="15.0" ry="15.0" fill="#FFFFFF" stroke="#B4C8D8" stroke-width="1.25" /><text x="680.0" y="146.6" font-family="Arial, Liberation Sans, sans-serif" font-size="16.0" font-weight="normal" fill="#182D40" text-anchor="middle">v4</text></g><g id="e73"><polyline points="554.0,160.0 554.0,178.0 680.0,178.0 680.0,160.0" fill="none" stroke="#B4C8D8" stroke-width="1.1" stroke-linejoin="round" stroke-linecap="round" /></g><g id="asymmetric-screening"><rect x="548.0" y="210.0" width="155.0" height="53.0" rx="4.24" fill="#FFFFFF" stroke="#216494" stroke-width="1.25" /><text x="625.5" y="232.035" font-family="Arial, Liberation Sans, sans-serif" font-size="19.0" font-weight="bold" fill="#216494" text-anchor="middle">Asymmetric</text><text x="625.5" y="254.265" font-family="Arial, Liberation Sans, sans-serif" font-size="19.0" font-weight="bold" fill="#216494" text-anchor="middle">screening</text></g><g id="e75"><polygon points="619.0,210.0 615.766,202.3 622.234,202.3" fill="#216494" /><polyline points="619.0,178.0 619.0,203.3" fill="none" stroke="#216494" stroke-width="1.7" stroke-linejoin="round" stroke-linecap="round" /></g><g id="e76"><polygon points="548.0,223.0 540.3,226.234 540.3,219.766" fill="#216494" /><polyline points="506.0,137.0 527.0,137.0 527.0,223.0 541.3,223.0" fill="none" stroke="#216494" stroke-width="1.7" stroke-linejoin="round" stroke-linecap="round" /></g><g id="e77"><polygon points="548.0,249.0 540.3,252.234 540.3,245.766" fill="#216494" /><polyline points="512.0,249.0 541.3,249.0" fill="none" stroke="#216494" stroke-width="1.7" stroke-linejoin="round" stroke-linecap="round" /></g><g id="frontier"><rect x="735.0" y="114.0" width="110.0" height="55.0" rx="4.4" fill="#FFFFFF" stroke="#B4C8D8" stroke-width="1.25" /><text x="790.0" y="137.27" font-family="Arial, Liberation Sans, sans-serif" font-size="18.0" font-weight="bold" fill="#182D40" text-anchor="middle">Search</text><text x="790.0" y="158.33" font-family="Arial, Liberation Sans, sans-serif" font-size="18.0" font-weight="bold" fill="#182D40" text-anchor="middle">frontier</text></g><g id="primary-scoring"><rect x="735.0" y="219.0" width="110.0" height="58.0" rx="4.64" fill="#FFFFFF" stroke="#216494" stroke-width="1.25" /><text x="790.0" y="243.535" font-family="Arial, Liberation Sans, sans-serif" font-size="19.0" font-weight="bold" fill="#216494" text-anchor="middle">4-bit</text><text x="790.0" y="265.765" font-family="Arial, Liberation Sans, sans-serif" font-size="19.0" font-weight="bold" fill="#216494" text-anchor="middle">scoring</text></g><g id="e80"><polygon points="790.0,169.0 793.318,176.9 786.682,176.9" fill="#216494" /><polyline points="790.0,219.0 790.0,175.9" fill="none" stroke="#216494" stroke-width="1.9" stroke-linejoin="round" stroke-linecap="round" /></g><g id="n81"><rect x="731.0" y="184.0" width="52.0" height="22.0" rx="0" fill="none" stroke="none" stroke-width="1.25" /><text x="757.0" y="200.6" font-family="Arial, Liberation Sans, sans-serif" font-size="16.0" font-weight="normal" fill="#216494" text-anchor="middle">update</text></g><g id="e82"><polygon points="706.0,137.0 713.7,133.766 713.7,140.234" fill="#216494" /><polyline points="735.0,137.0 712.7,137.0" fill="none" stroke="#216494" stroke-width="1.7" stroke-linejoin="round" stroke-linecap="round" /></g><g id="e83"><polygon points="845.0,248.0 852.3,244.934 852.3,251.066" fill="#216494" /><polyline points="493.0,114.0 493.0,67.0 853.0,67.0 853.0,248.0 851.3,248.0" fill="none" stroke="#216494" stroke-width="1.3" stroke-linejoin="round" stroke-linecap="round" /></g><g id="n84"><rect x="833.0" y="184.0" width="16.0" height="22.0" rx="0" fill="none" stroke="none" stroke-width="1.25" /><text x="841.0" y="200.95" font-family="Arial, Liberation Sans, sans-serif" font-size="17.0" font-weight="normal" fill="#216494" text-anchor="middle">q</text></g><g id="e85"><polyline points="625.0,263.0 625.0,286.0" fill="none" stroke="#216494" stroke-width="1.7" stroke-linejoin="round" stroke-linecap="round" /></g><g id="e86"><polyline points="556.0,286.0 676.0,286.0" fill="none" stroke="#216494" stroke-width="1.3" stroke-linejoin="round" stroke-linecap="round" /></g><g id="n87"><ellipse cx="556.0" cy="322.0" rx="15.0" ry="15.0" fill="#216494" stroke="#216494" stroke-width="1.25" /><text x="556.0" y="327.6" font-family="Arial, Liberation Sans, sans-serif" font-size="16.0" font-weight="normal" fill="#FFFFFF" text-anchor="middle">v1</text></g><g id="e88"><polygon points="556.0,307.0 552.976,299.8 559.024,299.8" fill="#216494" /><polyline points="556.0,286.0 556.0,300.8" fill="none" stroke="#216494" stroke-width="1.2" stroke-linejoin="round" stroke-linecap="round" /></g><g id="n89"><ellipse cx="596.0" cy="322.0" rx="15.0" ry="15.0" fill="#EDF0F3" stroke="#BAC4CE" stroke-width="1.25" /><text x="596.0" y="327.6" font-family="Arial, Liberation Sans, sans-serif" font-size="16.0" font-weight="normal" fill="#7C8995" text-anchor="middle">v2</text></g><g id="e90"><polygon points="596.0,307.0 592.976,299.8 599.024,299.8" fill="#9AA7B3" /><polyline points="596.0,286.0 596.0,300.8" fill="none" stroke="#9AA7B3" stroke-width="1.2" stroke-linejoin="round" stroke-linecap="round" /></g><g id="e91"><polyline points="584.0,310.0 608.0,334.0" fill="none" stroke="#8F9BA7" stroke-width="1.2" stroke-linejoin="round" stroke-linecap="round" /></g><g id="n92"><ellipse cx="636.0" cy="322.0" rx="15.0" ry="15.0" fill="#EDF0F3" stroke="#BAC4CE" stroke-width="1.25" /><text x="636.0" y="327.6" font-family="Arial, Liberation Sans, sans-serif" font-size="16.0" font-weight="normal" fill="#7C8995" text-anchor="middle">v3</text></g><g id="e93"><polygon points="636.0,307.0 632.976,299.8 639.024,299.8" fill="#9AA7B3" /><polyline points="636.0,286.0 636.0,300.8" fill="none" stroke="#9AA7B3" stroke-width="1.2" stroke-linejoin="round" stroke-linecap="round" /></g><g id="e94"><polyline points="624.0,310.0 648.0,334.0" fill="none" stroke="#8F9BA7" stroke-width="1.2" stroke-linejoin="round" stroke-linecap="round" /></g><g id="n95"><ellipse cx="676.0" cy="322.0" rx="15.0" ry="15.0" fill="#216494" stroke="#216494" stroke-width="1.25" /><text x="676.0" y="327.6" font-family="Arial, Liberation Sans, sans-serif" font-size="16.0" font-weight="normal" fill="#FFFFFF" text-anchor="middle">v4</text></g><g id="e96"><polygon points="676.0,307.0 672.976,299.8 679.024,299.8" fill="#216494" /><polyline points="676.0,286.0 676.0,300.8" fill="none" stroke="#216494" stroke-width="1.2" stroke-linejoin="round" stroke-linecap="round" /></g><g id="n97"><rect x="581.0" y="345.0" width="73.0" height="22.0" rx="0" fill="none" stroke="none" stroke-width="1.25" /><text x="617.5" y="361.6" font-family="Arial, Liberation Sans, sans-serif" font-size="16.0" font-weight="normal" fill="#526577" text-anchor="middle">pruned</text></g><g id="n98"><rect x="489.0" y="347.0" width="58.0" height="22.0" rx="0" fill="none" stroke="none" stroke-width="1.25" /><text x="518.0" y="363.6" font-family="Arial, Liberation Sans, sans-serif" font-size="16.0" font-weight="normal" fill="#216494" text-anchor="middle">fetch</text></g><g id="n99"><rect x="685.0" y="347.0" width="48.0" height="22.0" rx="0" fill="none" stroke="none" stroke-width="1.25" /><text x="709.0" y="363.6" font-family="Arial, Liberation Sans, sans-serif" font-size="16.0" font-weight="normal" fill="#216494" text-anchor="middle">fetch</text></g><g id="primary-page"><rect x="509.0" y="443.0" width="201.0" height="85.0" rx="6.8" fill="#FFFFFF" stroke="#B4C8D8" stroke-width="1.25" /></g><g id="n101"><rect x="514.0" y="449.0" width="191.0" height="21.0" rx="0" fill="none" stroke="none" stroke-width="1.25" /><text x="609.5" y="465.1" font-family="Arial, Liberation Sans, sans-serif" font-size="16.0" font-weight="bold" fill="#216494" text-anchor="middle">Primary 4-bit + metadata</text></g><g id="n102"><rect x="523.0" y="481.0" width="27.0" height="19.0" rx="0" fill="none" stroke="none" stroke-width="1.25" /><text x="536.5" y="496.1" font-family="Arial, Liberation Sans, sans-serif" font-size="16.0" font-weight="normal" fill="#216494" text-anchor="middle">v1</text></g><g id="n103"><rect x="558.0" y="481.0" width="17.0" height="19.0" rx="0" fill="#216494" stroke="#216494" stroke-width="1.25" /><text x="566.5" y="496.45" font-family="Arial, Liberation Sans, sans-serif" font-size="17.0" font-weight="normal" fill="#FFFFFF" text-anchor="middle">1</text></g><g id="n104"><rect x="575.0" y="481.0" width="17.0" height="19.0" rx="0" fill="#E7F1F8" stroke="#216494" stroke-width="1.25" /><text x="583.5" y="496.45" font-family="Arial, Liberation Sans, sans-serif" font-size="17.0" font-weight="normal" fill="#216494" text-anchor="middle">0</text></g><g id="n105"><rect x="592.0" y="481.0" width="17.0" height="19.0" rx="0" fill="#E7F1F8" stroke="#216494" stroke-width="1.25" /><text x="600.5" y="496.45" font-family="Arial, Liberation Sans, sans-serif" font-size="17.0" font-weight="normal" fill="#216494" text-anchor="middle">1</text></g><g id="n106"><rect x="609.0" y="481.0" width="17.0" height="19.0" rx="0" fill="#E7F1F8" stroke="#216494" stroke-width="1.25" /><text x="617.5" y="496.45" font-family="Arial, Liberation Sans, sans-serif" font-size="17.0" font-weight="normal" fill="#216494" text-anchor="middle">0</text></g><g id="n107"><rect x="637.0" y="481.0" width="59.0" height="19.0" rx="0" fill="none" stroke="none" stroke-width="1.25" /><text x="666.5" y="496.45" font-family="Arial, Liberation Sans, sans-serif" font-size="17.0" font-weight="normal" fill="#526577" text-anchor="middle">...</text></g><g id="n108"><rect x="523.0" y="505.0" width="27.0" height="19.0" rx="0" fill="none" stroke="none" stroke-width="1.25" /><text x="536.5" y="520.1" font-family="Arial, Liberation Sans, sans-serif" font-size="16.0" font-weight="normal" fill="#216494" text-anchor="middle">v4</text></g><g id="n109"><rect x="558.0" y="505.0" width="17.0" height="19.0" rx="0" fill="#216494" stroke="#216494" stroke-width="1.25" /><text x="566.5" y="520.45" font-family="Arial, Liberation Sans, sans-serif" font-size="17.0" font-weight="normal" fill="#FFFFFF" text-anchor="middle">0</text></g><g id="n110"><rect x="575.0" y="505.0" width="17.0" height="19.0" rx="0" fill="#E7F1F8" stroke="#216494" stroke-width="1.25" /><text x="583.5" y="520.45" font-family="Arial, Liberation Sans, sans-serif" font-size="17.0" font-weight="normal" fill="#216494" text-anchor="middle">1</text></g><g id="n111"><rect x="592.0" y="505.0" width="17.0" height="19.0" rx="0" fill="#E7F1F8" stroke="#216494" stroke-width="1.25" /><text x="600.5" y="520.45" font-family="Arial, Liberation Sans, sans-serif" font-size="17.0" font-weight="normal" fill="#216494" text-anchor="middle">0</text></g><g id="n112"><rect x="609.0" y="505.0" width="17.0" height="19.0" rx="0" fill="#E7F1F8" stroke="#216494" stroke-width="1.25" /><text x="617.5" y="520.45" font-family="Arial, Liberation Sans, sans-serif" font-size="17.0" font-weight="normal" fill="#216494" text-anchor="middle">1</text></g><g id="n113"><rect x="637.0" y="505.0" width="59.0" height="19.0" rx="0" fill="none" stroke="none" stroke-width="1.25" /><text x="666.5" y="520.45" font-family="Arial, Liberation Sans, sans-serif" font-size="17.0" font-weight="normal" fill="#526577" text-anchor="middle">...</text></g><g id="e114"><polygon points="556.0,443.0 552.598,434.9 559.402,434.9" fill="#216494" /><polyline points="556.0,337.0 556.0,435.9" fill="none" stroke="#216494" stroke-width="2.1" stroke-linejoin="round" stroke-linecap="round" /></g><g id="e115"><polygon points="676.0,443.0 672.598,434.9 679.402,434.9" fill="#216494" /><polyline points="676.0,337.0 676.0,435.9" fill="none" stroke="#216494" stroke-width="2.1" stroke-linejoin="round" stroke-linecap="round" /></g><g id="e116"><polygon points="790.0,277.0 793.36,285.0 786.64,285.0" fill="#216494" /><polyline points="710.0,492.0 790.0,492.0 790.0,284.0" fill="none" stroke="#216494" stroke-width="2.0" stroke-linejoin="round" stroke-linecap="round" /></g><g id="n117"><rect x="716.0" y="431.0" width="70.0" height="42.0" rx="0" fill="none" stroke="none" stroke-width="1.25" /><text x="751.0" y="448.24" font-family="Arial, Liberation Sans, sans-serif" font-size="16.0" font-weight="normal" fill="#216494" text-anchor="middle">primary</text><text x="751.0" y="466.96000000000004" font-family="Arial, Liberation Sans, sans-serif" font-size="16.0" font-weight="normal" fill="#216494" text-anchor="middle">payload</text></g><g id="n118"><rect x="358.0" y="450.0" width="130.0" height="77.0" rx="6.16" fill="#FFFFFF" stroke="#B4C8D8" stroke-width="1.25" /><text x="423.0" y="484.27000000000004" font-family="Arial, Liberation Sans, sans-serif" font-size="18.0" font-weight="normal" fill="#526577" text-anchor="middle">Graph</text><text x="423.0" y="505.33000000000004" font-family="Arial, Liberation Sans, sans-serif" font-size="18.0" font-weight="normal" fill="#526577" text-anchor="middle">adjacency</text></g><g id="n119"><rect x="370.0" y="296.0" width="138.0" height="53.0" rx="0" fill="none" stroke="none" stroke-width="1.25" /><text x="439.0" y="308.56" font-family="Arial, Liberation Sans, sans-serif" font-size="17.0" font-weight="normal" fill="#526577" text-anchor="middle">Promising</text><text x="439.0" y="328.45" font-family="Arial, Liberation Sans, sans-serif" font-size="17.0" font-weight="normal" fill="#526577" text-anchor="middle">candidates get</text><text x="439.0" y="348.34" font-family="Arial, Liberation Sans, sans-serif" font-size="17.0" font-weight="normal" fill="#526577" text-anchor="middle">fine payloads</text></g><g id="n120"><rect x="893.0" y="86.0" width="284.0" height="30.0" rx="0" fill="none" stroke="none" stroke-width="1.25" /><text x="893.0" y="108.0" font-family="Arial, Liberation Sans, sans-serif" font-size="20.0" font-weight="bold" fill="#216494" text-anchor="start">1-bit  /  screening</text></g><g id="n121"><rect x="909.0" y="134.0" width="33.0" height="31.0" rx="0" fill="#216494" stroke="#216494" stroke-width="1.25" /><text x="925.5" y="156.15" font-family="Arial, Liberation Sans, sans-serif" font-size="19.0" font-weight="normal" fill="#FFFFFF" text-anchor="middle">1</text></g><g id="n122"><rect x="957.0" y="134.0" width="33.0" height="31.0" rx="0" fill="#216494" stroke="#216494" stroke-width="1.25" /><text x="973.5" y="156.15" font-family="Arial, Liberation Sans, sans-serif" font-size="19.0" font-weight="normal" fill="#FFFFFF" text-anchor="middle">0</text></g><g id="n123"><rect x="1005.0" y="134.0" width="33.0" height="31.0" rx="0" fill="#216494" stroke="#216494" stroke-width="1.25" /><text x="1021.5" y="156.15" font-family="Arial, Liberation Sans, sans-serif" font-size="19.0" font-weight="normal" fill="#FFFFFF" text-anchor="middle">1</text></g><g id="n124"><rect x="1053.0" y="134.0" width="33.0" height="31.0" rx="0" fill="#216494" stroke="#216494" stroke-width="1.25" /><text x="1069.5" y="156.15" font-family="Arial, Liberation Sans, sans-serif" font-size="19.0" font-weight="normal" fill="#FFFFFF" text-anchor="middle">0</text></g><g id="n125"><rect x="1106.0" y="134.0" width="46.0" height="31.0" rx="0" fill="none" stroke="none" stroke-width="1.25" /><text x="1129.0" y="156.85" font-family="Arial, Liberation Sans, sans-serif" font-size="21.0" font-weight="normal" fill="#216494" text-anchor="middle">...</text></g><g id="n126"><rect x="894.0" y="180.0" width="282.0" height="27.0" rx="0" fill="none" stroke="none" stroke-width="1.25" /><text x="894.0" y="199.45" font-family="Arial, Liberation Sans, sans-serif" font-size="17.0" font-weight="normal" fill="#526577" text-anchor="start">Coarse candidate assessment</text></g><g id="e127"><polyline points="893.0,222.0 1181.0,222.0" fill="none" stroke="#B4C8D8" stroke-width="1.0" stroke-linejoin="round" stroke-linecap="round" /></g><g id="n128"><rect x="893.0" y="246.0" width="286.0" height="30.0" rx="0" fill="none" stroke="none" stroke-width="1.25" /><text x="893.0" y="267.65" font-family="Arial, Liberation Sans, sans-serif" font-size="19.0" font-weight="bold" fill="#216494" text-anchor="start">Primary 4-bit  /  navigation</text></g><g id="n129"><rect x="897.0" y="294.0" width="15.0" height="30.0" rx="0" fill="#216494" stroke="#216494" stroke-width="1.25" /><text x="904.5" y="314.95" font-family="Arial, Liberation Sans, sans-serif" font-size="17.0" font-weight="normal" fill="#FFFFFF" text-anchor="middle">1</text></g><g id="n130"><rect x="912.0" y="294.0" width="15.0" height="30.0" rx="0" fill="#E7F1F8" stroke="#216494" stroke-width="1.25" /><text x="919.5" y="314.95" font-family="Arial, Liberation Sans, sans-serif" font-size="17.0" font-weight="normal" fill="#216494" text-anchor="middle">0</text></g><g id="n131"><rect x="927.0" y="294.0" width="15.0" height="30.0" rx="0" fill="#E7F1F8" stroke="#216494" stroke-width="1.25" /><text x="934.5" y="314.95" font-family="Arial, Liberation Sans, sans-serif" font-size="17.0" font-weight="normal" fill="#216494" text-anchor="middle">1</text></g><g id="n132"><rect x="942.0" y="294.0" width="15.0" height="30.0" rx="0" fill="#E7F1F8" stroke="#216494" stroke-width="1.25" /><text x="949.5" y="314.95" font-family="Arial, Liberation Sans, sans-serif" font-size="17.0" font-weight="normal" fill="#216494" text-anchor="middle">0</text></g><g id="n133"><rect x="965.0" y="294.0" width="15.0" height="30.0" rx="0" fill="#216494" stroke="#216494" stroke-width="1.25" /><text x="972.5" y="314.95" font-family="Arial, Liberation Sans, sans-serif" font-size="17.0" font-weight="normal" fill="#FFFFFF" text-anchor="middle">0</text></g><g id="n134"><rect x="980.0" y="294.0" width="15.0" height="30.0" rx="0" fill="#E7F1F8" stroke="#216494" stroke-width="1.25" /><text x="987.5" y="314.95" font-family="Arial, Liberation Sans, sans-serif" font-size="17.0" font-weight="normal" fill="#216494" text-anchor="middle">0</text></g><g id="n135"><rect x="995.0" y="294.0" width="15.0" height="30.0" rx="0" fill="#E7F1F8" stroke="#216494" stroke-width="1.25" /><text x="1002.5" y="314.95" font-family="Arial, Liberation Sans, sans-serif" font-size="17.0" font-weight="normal" fill="#216494" text-anchor="middle">1</text></g><g id="n136"><rect x="1010.0" y="294.0" width="15.0" height="30.0" rx="0" fill="#E7F1F8" stroke="#216494" stroke-width="1.25" /><text x="1017.5" y="314.95" font-family="Arial, Liberation Sans, sans-serif" font-size="17.0" font-weight="normal" fill="#216494" text-anchor="middle">1</text></g><g id="n137"><rect x="1033.0" y="294.0" width="15.0" height="30.0" rx="0" fill="#216494" stroke="#216494" stroke-width="1.25" /><text x="1040.5" y="314.95" font-family="Arial, Liberation Sans, sans-serif" font-size="17.0" font-weight="normal" fill="#FFFFFF" text-anchor="middle">1</text></g><g id="n138"><rect x="1048.0" y="294.0" width="15.0" height="30.0" rx="0" fill="#E7F1F8" stroke="#216494" stroke-width="1.25" /><text x="1055.5" y="314.95" font-family="Arial, Liberation Sans, sans-serif" font-size="17.0" font-weight="normal" fill="#216494" text-anchor="middle">1</text></g><g id="n139"><rect x="1063.0" y="294.0" width="15.0" height="30.0" rx="0" fill="#E7F1F8" stroke="#216494" stroke-width="1.25" /><text x="1070.5" y="314.95" font-family="Arial, Liberation Sans, sans-serif" font-size="17.0" font-weight="normal" fill="#216494" text-anchor="middle">1</text></g><g id="n140"><rect x="1078.0" y="294.0" width="15.0" height="30.0" rx="0" fill="#E7F1F8" stroke="#216494" stroke-width="1.25" /><text x="1085.5" y="314.95" font-family="Arial, Liberation Sans, sans-serif" font-size="17.0" font-weight="normal" fill="#216494" text-anchor="middle">0</text></g><g id="n141"><rect x="1101.0" y="294.0" width="15.0" height="30.0" rx="0" fill="#216494" stroke="#216494" stroke-width="1.25" /><text x="1108.5" y="314.95" font-family="Arial, Liberation Sans, sans-serif" font-size="17.0" font-weight="normal" fill="#FFFFFF" text-anchor="middle">0</text></g><g id="n142"><rect x="1116.0" y="294.0" width="15.0" height="30.0" rx="0" fill="#E7F1F8" stroke="#216494" stroke-width="1.25" /><text x="1123.5" y="314.95" font-family="Arial, Liberation Sans, sans-serif" font-size="17.0" font-weight="normal" fill="#216494" text-anchor="middle">1</text></g><g id="n143"><rect x="1131.0" y="294.0" width="15.0" height="30.0" rx="0" fill="#E7F1F8" stroke="#216494" stroke-width="1.25" /><text x="1138.5" y="314.95" font-family="Arial, Liberation Sans, sans-serif" font-size="17.0" font-weight="normal" fill="#216494" text-anchor="middle">0</text></g><g id="n144"><rect x="1146.0" y="294.0" width="15.0" height="30.0" rx="0" fill="#E7F1F8" stroke="#216494" stroke-width="1.25" /><text x="1153.5" y="314.95" font-family="Arial, Liberation Sans, sans-serif" font-size="17.0" font-weight="normal" fill="#216494" text-anchor="middle">1</text></g><g id="n145"><rect x="894.0" y="337.0" width="282.0" height="27.0" rx="0" fill="none" stroke="none" stroke-width="1.25" /><text x="894.0" y="356.45" font-family="Arial, Liberation Sans, sans-serif" font-size="17.0" font-weight="normal" fill="#526577" text-anchor="start">Refine the search frontier</text></g><g id="e146"><polyline points="893.0,380.0 1181.0,380.0" fill="none" stroke="#B4C8D8" stroke-width="1.0" stroke-linejoin="round" stroke-linecap="round" /></g><g id="n147"><rect x="893.0" y="396.0" width="286.0" height="28.0" rx="0" fill="none" stroke="none" stroke-width="1.25" /><text x="893.0" y="417.0" font-family="Arial, Liberation Sans, sans-serif" font-size="20.0" font-weight="bold" fill="#182D40" text-anchor="start">Final shortlist reranking</text></g><g id="n148"><rect x="895.0" y="438.0" width="132.0" height="23.0" rx="0" fill="none" stroke="none" stroke-width="1.25" /><text x="961.0" y="455.45" font-family="Arial, Liberation Sans, sans-serif" font-size="17.0" font-weight="normal" fill="#216494" text-anchor="middle">Primary 4-bit</text></g><g id="n149"><rect x="1041.0" y="438.0" width="136.0" height="23.0" rx="0" fill="none" stroke="none" stroke-width="1.25" /><text x="1109.0" y="455.45" font-family="Arial, Liberation Sans, sans-serif" font-size="17.0" font-weight="normal" fill="#A85C16" text-anchor="middle">Residual 4-bit</text></g><g id="n150"><rect x="914.0" y="467.0" width="22.0" height="27.0" rx="0" fill="#216494" stroke="#216494" stroke-width="1.25" /><text x="925.0" y="486.45" font-family="Arial, Liberation Sans, sans-serif" font-size="17.0" font-weight="normal" fill="#FFFFFF" text-anchor="middle">1</text></g><g id="n151"><rect x="936.0" y="467.0" width="22.0" height="27.0" rx="0" fill="#E7F1F8" stroke="#216494" stroke-width="1.25" /><text x="947.0" y="486.45" font-family="Arial, Liberation Sans, sans-serif" font-size="17.0" font-weight="normal" fill="#216494" text-anchor="middle">0</text></g><g id="n152"><rect x="958.0" y="467.0" width="22.0" height="27.0" rx="0" fill="#E7F1F8" stroke="#216494" stroke-width="1.25" /><text x="969.0" y="486.45" font-family="Arial, Liberation Sans, sans-serif" font-size="17.0" font-weight="normal" fill="#216494" text-anchor="middle">1</text></g><g id="n153"><rect x="980.0" y="467.0" width="22.0" height="27.0" rx="0" fill="#E7F1F8" stroke="#216494" stroke-width="1.25" /><text x="991.0" y="486.45" font-family="Arial, Liberation Sans, sans-serif" font-size="17.0" font-weight="normal" fill="#216494" text-anchor="middle">0</text></g><g id="n154"><rect x="1065.0" y="467.0" width="22.0" height="27.0" rx="0" fill="#F9E9D5" stroke="#A85C16" stroke-width="1.25" /><text x="1076.0" y="486.45" font-family="Arial, Liberation Sans, sans-serif" font-size="17.0" font-weight="normal" fill="#A85C16" text-anchor="middle">0</text></g><g id="n155"><rect x="1087.0" y="467.0" width="22.0" height="27.0" rx="0" fill="#F9E9D5" stroke="#A85C16" stroke-width="1.25" /><text x="1098.0" y="486.45" font-family="Arial, Liberation Sans, sans-serif" font-size="17.0" font-weight="normal" fill="#A85C16" text-anchor="middle">1</text></g><g id="n156"><rect x="1109.0" y="467.0" width="22.0" height="27.0" rx="0" fill="#F9E9D5" stroke="#A85C16" stroke-width="1.25" /><text x="1120.0" y="486.45" font-family="Arial, Liberation Sans, sans-serif" font-size="17.0" font-weight="normal" fill="#A85C16" text-anchor="middle">1</text></g><g id="n157"><rect x="1131.0" y="467.0" width="22.0" height="27.0" rx="0" fill="#F9E9D5" stroke="#A85C16" stroke-width="1.25" /><text x="1142.0" y="486.45" font-family="Arial, Liberation Sans, sans-serif" font-size="17.0" font-weight="normal" fill="#A85C16" text-anchor="middle">0</text></g><g id="n158"><rect x="1020.0" y="468.0" width="30.0" height="24.0" rx="0" fill="none" stroke="none" stroke-width="1.25" /><text x="1035.0" y="488.05" font-family="Arial, Liberation Sans, sans-serif" font-size="23.0" font-weight="normal" fill="#526577" text-anchor="middle">+</text></g><g id="residual-reranking"><rect x="967.0" y="526.0" width="198.0" height="32.0" rx="2.56" fill="#FFFFFF" stroke="#A85C16" stroke-width="1.25" /><text x="1066.0" y="548.3" font-family="Arial, Liberation Sans, sans-serif" font-size="18.0" font-weight="bold" fill="#A85C16" text-anchor="middle">Refined ranking</text></g><g id="e160"><polygon points="1065.0,526.0 1061.85,518.5 1068.15,518.5" fill="#216494" /><polyline points="958.0,494.0 958.0,508.0 1065.0,508.0 1065.0,519.5" fill="none" stroke="#216494" stroke-width="1.5" stroke-linejoin="round" stroke-linecap="round" /></g><g id="e161"><polyline points="1109.0,494.0 1109.0,508.0 1065.0,508.0" fill="none" stroke="#A85C16" stroke-width="1.5" stroke-linejoin="round" stroke-linecap="round" /></g><g id="n162"><rect x="898.0" y="530.0" width="24.0" height="24.0" rx="0" fill="none" stroke="none" stroke-width="1.25" /><text x="910.0" y="549.0" font-family="Arial, Liberation Sans, sans-serif" font-size="20.0" font-weight="normal" fill="#216494" text-anchor="middle">q</text></g><g id="e163"><polygon points="967.0,542.0 959.5,545.15 959.5,538.85" fill="#216494" /><polyline points="928.0,542.0 960.5,542.0" fill="none" stroke="#216494" stroke-width="1.5" stroke-linejoin="round" stroke-linecap="round" /></g></svg>